REM DIRINDEX 1\2,1\3,1\4,1\5,1\6
REM DIRNAME cjc030,folder01,folder02,folder03,folder04,folder05
TITLE ""
FILE "Disc6Track55.mp3" MP3
  TRACK 01 AUDIO
    TITLE "3:cjc030_12012"
    INDEX 01 00:00:00
  TRACK 02 AUDIO
    TITLE "0:"
    INDEX 01 00:01:01
  TRACK 03 AUDIO
    TITLE "4:cjc030_12013"
    INDEX 01 00:01:11
  TRACK 04 AUDIO
    TITLE "0:"
    INDEX 01 00:03:66
  TRACK 05 AUDIO
    TITLE "5:cjc030_12014"
    INDEX 01 00:03:74
  TRACK 06 AUDIO
    TITLE "0:"
    INDEX 01 00:05:07
  TRACK 07 AUDIO
    TITLE "6:cjc030_12015"
    INDEX 01 00:05:18
  TRACK 08 AUDIO
    TITLE "0:"
    INDEX 01 00:10:53
  TRACK 09 AUDIO
    TITLE "3:cjc030_12016"
    INDEX 01 00:11:25
  TRACK 10 AUDIO
    TITLE "0:"
    INDEX 01 00:12:24
  TRACK 11 AUDIO
    TITLE "4:cjc030_12017"
    INDEX 01 00:12:34
  TRACK 12 AUDIO
    TITLE "0:"
    INDEX 01 00:14:25
  TRACK 13 AUDIO
    TITLE "5:cjc030_12018"
    INDEX 01 00:14:35
  TRACK 14 AUDIO
    TITLE "0:"
    INDEX 01 00:15:36
  TRACK 15 AUDIO
    TITLE "6:cjc030_12019"
    INDEX 01 00:15:46
  TRACK 16 AUDIO
    TITLE "0:"
    INDEX 01 00:19:24
  TRACK 17 AUDIO
    TITLE "3:cjc030_12020"
    INDEX 01 00:19:71
  TRACK 18 AUDIO
    TITLE "0:"
    INDEX 01 00:20:65
  TRACK 19 AUDIO
    TITLE "4:cjc030_12021"
    INDEX 01 00:21:02
  TRACK 20 AUDIO
    TITLE "0:"
    INDEX 01 00:23:04
  TRACK 21 AUDIO
    TITLE "5:cjc030_12022"
    INDEX 01 00:23:12
  TRACK 22 AUDIO
    TITLE "0:"
    INDEX 01 00:24:08
  TRACK 23 AUDIO
    TITLE "6:cjc030_12023"
    INDEX 01 00:24:20
  TRACK 24 AUDIO
    TITLE "0:"
    INDEX 01 00:27:59
  TRACK 25 AUDIO
    TITLE "3:cjc030_12024"
    INDEX 01 00:28:33
  TRACK 26 AUDIO
    TITLE "0:"
    INDEX 01 00:29:25
  TRACK 27 AUDIO
    TITLE "4:cjc030_12025"
    INDEX 01 00:29:38
  TRACK 28 AUDIO
    TITLE "0:"
    INDEX 01 00:32:05
  TRACK 29 AUDIO
    TITLE "5:cjc030_12026"
    INDEX 01 00:32:13
  TRACK 30 AUDIO
    TITLE "0:"
    INDEX 01 00:33:11
  TRACK 31 AUDIO
    TITLE "6:cjc030_12027"
    INDEX 01 00:33:21
  TRACK 32 AUDIO
    TITLE "0:"
    INDEX 01 00:36:05
  TRACK 33 AUDIO
    TITLE "3:cjc030_12028"
    INDEX 01 00:36:54
  TRACK 34 AUDIO
    TITLE "0:"
    INDEX 01 00:37:54
  TRACK 35 AUDIO
    TITLE "4:cjc030_12029"
    INDEX 01 00:37:65
  TRACK 36 AUDIO
    TITLE "0:"
    INDEX 01 00:40:11
  TRACK 37 AUDIO
    TITLE "5:cjc030_12030"
    INDEX 01 00:40:17
  TRACK 38 AUDIO
    TITLE "0:"
    INDEX 01 00:41:20
  TRACK 39 AUDIO
    TITLE "6:cjc030_12031"
    INDEX 01 00:41:30
  TRACK 40 AUDIO
    TITLE "0:"
    INDEX 01 00:47:13
  TRACK 41 AUDIO
    TITLE "3:cjc030_12032"
    INDEX 01 00:47:58
  TRACK 42 AUDIO
    TITLE "0:"
    INDEX 01 00:48:63
  TRACK 43 AUDIO
    TITLE "4:cjc030_12033"
    INDEX 01 00:48:71
  TRACK 44 AUDIO
    TITLE "0:"
    INDEX 01 00:50:42
  TRACK 45 AUDIO
    TITLE "5:cjc030_12034"
    INDEX 01 00:50:52
  TRACK 46 AUDIO
    TITLE "0:"
    INDEX 01 00:51:56
  TRACK 47 AUDIO
    TITLE "6:cjc030_12035"
    INDEX 01 00:51:67
  TRACK 48 AUDIO
    TITLE "0:"
    INDEX 01 00:54:38
  TRACK 49 AUDIO
    TITLE "3:cjc030_12036"
    INDEX 01 00:55:10
  TRACK 50 AUDIO
    TITLE "0:"
    INDEX 01 00:56:10
  TRACK 51 AUDIO
    TITLE "4:cjc030_12037"
    INDEX 01 00:56:20
  TRACK 52 AUDIO
    TITLE "0:"
    INDEX 01 00:57:66
  TRACK 53 AUDIO
    TITLE "5:cjc030_12038"
    INDEX 01 00:57:74
  TRACK 54 AUDIO
    TITLE "0:"
    INDEX 01 00:59:02
  TRACK 55 AUDIO
    TITLE "6:cjc030_12039"
    INDEX 01 00:59:14
  TRACK 56 AUDIO
    TITLE "0:"
    INDEX 01 01:02:44
  TRACK 57 AUDIO
    TITLE "3:cjc030_12040"
    INDEX 01 01:03:20
  TRACK 58 AUDIO
    TITLE "0:"
    INDEX 01 01:04:19
  TRACK 59 AUDIO
    TITLE "4:cjc030_12041"
    INDEX 01 01:04:29
  TRACK 60 AUDIO
    TITLE "0:"
    INDEX 01 01:05:40
  TRACK 61 AUDIO
    TITLE "5:cjc030_12042"
    INDEX 01 01:05:48
  TRACK 62 AUDIO
    TITLE "0:"
    INDEX 01 01:06:55
  TRACK 63 AUDIO
    TITLE "6:cjc030_12043"
    INDEX 01 01:06:69
  TRACK 64 AUDIO
    TITLE "0:"
    INDEX 01 01:08:36
